<svg id="visual" viewBox="0 0 960 540" width="960" height="540" xmlns="http://www.w3.org/2000/svg" xmlns:xlink="http://www.w3.org/1999/xlink" version="1.1"><path d="M0 12L22.8 13.8C45.7 15.7 91.3 19.3 137 26.5C182.7 33.7 228.3 44.3 274 42.5C319.7 40.7 365.3 26.3 411.2 23.7C457 21 503 30 548.8 36.3C594.7 42.7 640.3 46.3 686 43.7C731.7 41 777.3 32 823 25.7C868.7 19.3 914.3 15.7 937.2 13.8L960 12L960 0L937.2 0C914.3 0 868.7 0 823 0C777.3 0 731.7 0 686 0C640.3 0 594.7 0 548.8 0C503 0 457 0 411.2 0C365.3 0 319.7 0 274 0C228.3 0 182.7 0 137 0C91.3 0 45.7 0 22.8 0L0 0Z" fill="#f5dfdb"></path><path d="M0 125L22.8 124.2C45.7 123.3 91.3 121.7 137 123.5C182.7 125.3 228.3 130.7 274 134.2C319.7 137.7 365.3 139.3 411.2 141.2C457 143 503 145 548.8 140.5C594.7 136 640.3 125 686 114.2C731.7 103.3 777.3 92.7 823 100.8C868.7 109 914.3 136 937.2 149.5L960 163L960 10L937.2 11.8C914.3 13.7 868.7 17.3 823 23.7C777.3 30 731.7 39 686 41.7C640.3 44.3 594.7 40.7 548.8 34.3C503 28 457 19 411.2 21.7C365.3 24.3 319.7 38.7 274 40.5C228.3 42.3 182.7 31.7 137 24.5C91.3 17.3 45.7 13.7 22.8 11.8L0 10Z" fill="#faefee"></path><path d="M0 179L22.8 172.7C45.7 166.3 91.3 153.7 137 155.5C182.7 157.3 228.3 173.7 274 181.8C319.7 190 365.3 190 411.2 186.3C457 182.7 503 175.3 548.8 170.8C594.7 166.3 640.3 164.7 686 155.7C731.7 146.7 777.3 130.3 823 141.2C868.7 152 914.3 190 937.2 209L960 228L960 161L937.2 147.5C914.3 134 868.7 107 823 98.8C777.3 90.7 731.7 101.3 686 112.2C640.3 123 594.7 134 548.8 138.5C503 143 457 141 411.2 139.2C365.3 137.3 319.7 135.7 274 132.2C228.3 128.7 182.7 123.3 137 121.5C91.3 119.7 45.7 121.3 22.8 122.2L0 123Z" fill="#fcf7f6"></path><path d="M0 228L22.8 224.3C45.7 220.7 91.3 213.3 137 219.7C182.7 226 228.3 246 274 256C319.7 266 365.3 266 411.2 257C457 248 503 230 548.8 223.7C594.7 217.3 640.3 222.7 686 217.2C731.7 211.7 777.3 195.3 823 204.3C868.7 213.3 914.3 247.7 937.2 264.8L960 282L960 226L937.2 207C914.3 188 868.7 150 823 139.2C777.3 128.3 731.7 144.7 686 153.7C640.3 162.7 594.7 164.3 548.8 168.8C503 173.3 457 180.7 411.2 184.3C365.3 188 319.7 188 274 179.8C228.3 171.7 182.7 155.3 137 153.5C91.3 151.7 45.7 164.3 22.8 170.7L0 177Z" fill="#fdf9f8"></path><path d="M0 341L22.8 326.7C45.7 312.3 91.3 283.7 137 274.7C182.7 265.7 228.3 276.3 274 287.2C319.7 298 365.3 309 411.2 310C457 311 503 302 548.8 293C594.7 284 640.3 275 686 269.5C731.7 264 777.3 262 823 271.8C868.7 281.7 914.3 303.3 937.2 314.2L960 325L960 280L937.2 262.8C914.3 245.7 868.7 211.3 823 202.3C777.3 193.3 731.7 209.7 686 215.2C640.3 220.7 594.7 215.3 548.8 221.7C503 228 457 246 411.2 255C365.3 264 319.7 264 274 254C228.3 244 182.7 224 137 217.7C91.3 211.3 45.7 218.7 22.8 222.3L0 226Z" fill="#fdf9f8"></path><path d="M0 417L22.8 421.5C45.7 426 91.3 435 137 440.3C182.7 445.7 228.3 447.3 274 442.8C319.7 438.3 365.3 427.7 411.2 423.2C457 418.7 503 420.3 548.8 420.3C594.7 420.3 640.3 418.7 686 424.2C731.7 429.7 777.3 442.3 823 442.3C868.7 442.3 914.3 429.7 937.2 423.3L960 417L960 323L937.2 312.2C914.3 301.3 868.7 279.7 823 269.8C777.3 260 731.7 262 686 267.5C640.3 273 594.7 282 548.8 291C503 300 457 309 411.2 308C365.3 307 319.7 296 274 285.2C228.3 274.3 182.7 263.7 137 272.7C91.3 281.7 45.7 310.3 22.8 324.7L0 339Z" fill="#fcf7f6"></path><path d="M0 498L22.8 498C45.7 498 91.3 498 137 496.2C182.7 494.3 228.3 490.7 274 487C319.7 483.3 365.3 479.7 411.2 480.5C457 481.3 503 486.7 548.8 488.5C594.7 490.3 640.3 488.7 686 491.5C731.7 494.3 777.3 501.7 823 499.8C868.7 498 914.3 487 937.2 481.5L960 476L960 415L937.2 421.3C914.3 427.7 868.7 440.3 823 440.3C777.3 440.3 731.7 427.7 686 422.2C640.3 416.7 594.7 418.3 548.8 418.3C503 418.3 457 416.7 411.2 421.2C365.3 425.7 319.7 436.3 274 440.8C228.3 445.3 182.7 443.7 137 438.3C91.3 433 45.7 424 22.8 419.5L0 415Z" fill="#faefee"></path><path d="M0 541L22.8 541C45.7 541 91.3 541 137 541C182.7 541 228.3 541 274 541C319.7 541 365.3 541 411.2 541C457 541 503 541 548.8 541C594.7 541 640.3 541 686 541C731.7 541 777.3 541 823 541C868.7 541 914.3 541 937.2 541L960 541L960 474L937.2 479.5C914.3 485 868.7 496 823 497.8C777.3 499.7 731.7 492.3 686 489.5C640.3 486.7 594.7 488.3 548.8 486.5C503 484.7 457 479.3 411.2 478.5C365.3 477.7 319.7 481.3 274 485C228.3 488.7 182.7 492.3 137 494.2C91.3 496 45.7 496 22.8 496L0 496Z" fill="#f5dfdb"></path></svg>