<svg id="visual" viewBox="0 0 900 600" width="900" height="600" xmlns="http://www.w3.org/2000/svg" xmlns:xlink="http://www.w3.org/1999/xlink" version="1.1"><path d="M0 235L30 214C60 193 120 151 180 155C240 159 300 209 360 208C420 207 480 155 540 159C600 163 660 223 720 224C780 225 840 167 870 138L900 109L900 0L870 0C840 0 780 0 720 0C660 0 600 0 540 0C480 0 420 0 360 0C300 0 240 0 180 0C120 0 60 0 30 0L0 0Z" fill="#6aebe0"></path><path d="M0 283L30 269C60 255 120 227 180 229C240 231 300 263 360 259C420 255 480 215 540 222C600 229 660 283 720 288C780 293 840 249 870 227L900 205L900 107L870 136C840 165 780 223 720 222C660 221 600 161 540 157C480 153 420 205 360 206C300 207 240 157 180 153C120 149 60 191 30 212L0 233Z" fill="#49e6d9"></path><path d="M0 403L30 387C60 371 120 339 180 330C240 321 300 335 360 333C420 331 480 313 540 319C600 325 660 355 720 353C780 351 840 317 870 300L900 283L900 203L870 225C840 247 780 291 720 286C660 281 600 227 540 220C480 213 420 253 360 257C300 261 240 229 180 227C120 225 60 253 30 267L0 281Z" fill="#00e0d1"></path><path d="M0 517L30 511C60 505 120 493 180 487C240 481 300 481 360 477C420 473 480 465 540 473C600 481 660 505 720 506C780 507 840 485 870 474L900 463L900 281L870 298C840 315 780 349 720 351C660 353 600 323 540 317C480 311 420 329 360 331C300 333 240 319 180 328C120 337 60 369 30 385L0 401Z" fill="#00c2b5"></path><path d="M0 601L30 601C60 601 120 601 180 601C240 601 300 601 360 601C420 601 480 601 540 601C600 601 660 601 720 601C780 601 840 601 870 601L900 601L900 461L870 472C840 483 780 505 720 504C660 503 600 479 540 471C480 463 420 471 360 475C300 479 240 479 180 485C120 491 60 503 30 509L0 515Z" fill="#00a499"></path></svg>