<svg id="visual" viewBox="0 0 960 540" width="960" height="540" xmlns="http://www.w3.org/2000/svg" xmlns:xlink="http://www.w3.org/1999/xlink" version="1.1"><path d="M0 44L20 40.5C40 37 80 30 120 26.5C160 23 200 23 240 24.7C280 26.3 320 29.7 360 31.3C400 33 440 33 480 37.5C520 42 560 51 600 48.3C640 45.7 680 31.3 720 27.8C760 24.3 800 31.7 840 31.7C880 31.7 920 24.3 940 20.7L960 17L960 0L940 0C920 0 880 0 840 0C800 0 760 0 720 0C680 0 640 0 600 0C560 0 520 0 480 0C440 0 400 0 360 0C320 0 280 0 240 0C200 0 160 0 120 0C80 0 40 0 20 0L0 0Z" fill="#e8ecf5"></path><path d="M0 109L20 109C40 109 80 109 120 118.8C160 128.7 200 148.3 240 160C280 171.7 320 175.3 360 170C400 164.7 440 150.3 480 142.3C520 134.3 560 132.7 600 132.7C640 132.7 680 134.3 720 128.8C760 123.3 800 110.7 840 115.2C880 119.7 920 141.3 940 152.2L960 163L960 15L940 18.7C920 22.3 880 29.7 840 29.7C800 29.7 760 22.3 720 25.8C680 29.3 640 43.7 600 46.3C560 49 520 40 480 35.5C440 31 400 31 360 29.3C320 27.7 280 24.3 240 22.7C200 21 160 21 120 24.5C80 28 40 35 20 38.5L0 42Z" fill="#e5e9f4"></path><path d="M0 152L20 150.2C40 148.3 80 144.7 120 157.3C160 170 200 199 240 212.5C280 226 320 224 360 213.2C400 202.3 440 182.7 480 172C520 161.3 560 159.7 600 161.5C640 163.3 680 168.7 720 164.2C760 159.7 800 145.3 840 151.7C880 158 920 185 940 198.5L960 212L960 161L940 150.2C920 139.3 880 117.7 840 113.2C800 108.7 760 121.3 720 126.8C680 132.3 640 130.7 600 130.7C560 130.7 520 132.3 480 140.3C440 148.3 400 162.7 360 168C320 173.3 280 169.7 240 158C200 146.3 160 126.7 120 116.8C80 107 40 107 20 107L0 107Z" fill="#e1e6f2"></path><path d="M0 222L20 214.8C40 207.7 80 193.3 120 206C160 218.7 200 258.3 240 270C280 281.7 320 265.3 360 258.2C400 251 440 253 480 249.5C520 246 560 237 600 228C640 219 680 210 720 199.2C760 188.3 800 175.7 840 192.7C880 209.7 920 256.3 940 279.7L960 303L960 210L940 196.5C920 183 880 156 840 149.7C800 143.3 760 157.7 720 162.2C680 166.7 640 161.3 600 159.5C560 157.7 520 159.3 480 170C440 180.7 400 200.3 360 211.2C320 222 280 224 240 210.5C200 197 160 168 120 155.3C80 142.7 40 146.3 20 148.2L0 150Z" fill="#dee3f1"></path><path d="M0 287L20 282.5C40 278 80 269 120 279.8C160 290.7 200 321.3 240 327.7C280 334 320 316 360 312.3C400 308.7 440 319.3 480 313C520 306.7 560 283.3 600 273.5C640 263.7 680 267.3 720 262C760 256.7 800 242.3 840 255C880 267.7 920 307.3 940 327.2L960 347L960 301L940 277.7C920 254.3 880 207.7 840 190.7C800 173.7 760 186.3 720 197.2C680 208 640 217 600 226C560 235 520 244 480 247.5C440 251 400 249 360 256.2C320 263.3 280 279.7 240 268C200 256.3 160 216.7 120 204C80 191.3 40 205.7 20 212.8L0 220Z" fill="#d9dfef"></path><path d="M0 330L20 322C40 314 80 298 120 308.8C160 319.7 200 357.3 240 361.8C280 366.3 320 337.7 360 328.7C400 319.7 440 330.3 480 330.3C520 330.3 560 319.7 600 315.2C640 310.7 680 312.3 720 306C760 299.7 800 285.3 840 299.8C880 314.3 920 357.7 940 379.3L960 401L960 345L940 325.2C920 305.3 880 265.7 840 253C800 240.3 760 254.7 720 260C680 265.3 640 261.7 600 271.5C560 281.3 520 304.7 480 311C440 317.3 400 306.7 360 310.3C320 314 280 332 240 325.7C200 319.3 160 288.7 120 277.8C80 267 40 276 20 280.5L0 285Z" fill="#d3daec"></path><path d="M0 401L20 393.7C40 386.3 80 371.7 120 387.8C160 404 200 451 240 459.2C280 467.3 320 436.7 360 423.2C400 409.7 440 413.3 480 406.2C520 399 560 381 600 381.8C640 382.7 680 402.3 720 402.3C760 402.3 800 382.7 840 383.7C880 384.7 920 406.3 940 417.2L960 428L960 399L940 377.3C920 355.7 880 312.3 840 297.8C800 283.3 760 297.7 720 304C680 310.3 640 308.7 600 313.2C560 317.7 520 328.3 480 328.3C440 328.3 400 317.7 360 326.7C320 335.7 280 364.3 240 359.8C200 355.3 160 317.7 120 306.8C80 296 40 312 20 320L0 328Z" fill="#ccd5ea"></path><path d="M0 541L20 541C40 541 80 541 120 541C160 541 200 541 240 541C280 541 320 541 360 541C400 541 440 541 480 541C520 541 560 541 600 541C640 541 680 541 720 541C760 541 800 541 840 541C880 541 920 541 940 541L960 541L960 426L940 415.2C920 404.3 880 382.7 840 381.7C800 380.7 760 400.3 720 400.3C680 400.3 640 380.7 600 379.8C560 379 520 397 480 404.2C440 411.3 400 407.7 360 421.2C320 434.7 280 465.3 240 457.2C200 449 160 402 120 385.8C80 369.7 40 384.3 20 391.7L0 399Z" fill="#c6d0e7"></path></svg>